<svg width="512" height="512" viewBox="0 0 512 512" fill="none" xmlns="http://www.w3.org/2000/svg">
  <defs>
    <linearGradient id="gradient" x1="0%" y1="0%" x2="100%" y2="100%">
      <stop offset="0%" style="stop-color:#3B82F6;stop-opacity:1" />
      <stop offset="100%" style="stop-color:#1E40AF;stop-opacity:1" />
    </linearGradient>
  </defs>
  
  <!-- Shield background -->
  <path d="M256 32L384 96V224C384 320 320 400 256 480C192 400 128 320 128 224V96L256 32Z" 
        fill="url(#gradient)" 
        stroke="#1E40AF" 
        stroke-width="8"/>
  
  <!-- Letter A -->
  <path d="M256 128L192 320H224L236.8 288H275.2L288 320H320L256 128Z
           M243.2 256L256 216L268.8 256H243.2Z" 
        fill="white" 
        stroke="white" 
        stroke-width="4"/>
  
  <!-- Connection lines -->
  <circle cx="160" cy="192" r="24" fill="white" opacity="0.8"/>
  <circle cx="352" cy="192" r="24" fill="white" opacity="0.8"/>
  <line x1="184" y1="192" x2="224" y2="224" stroke="white" stroke-width="12" opacity="0.6"/>
  <line x1="328" y1="192" x2="288" y2="224" stroke="white" stroke-width="12" opacity="0.6"/>
</svg>
