<svg width="32" height="32" viewBox="0 0 32 32" fill="none" xmlns="http://www.w3.org/2000/svg">
  <defs>
    <linearGradient id="gradient" x1="0%" y1="0%" x2="100%" y2="100%">
      <stop offset="0%" style="stop-color:#3B82F6;stop-opacity:1" />
      <stop offset="100%" style="stop-color:#1E40AF;stop-opacity:1" />
    </linearGradient>
  </defs>
  
  <!-- Shield background -->
  <path d="M16 2L24 6V14C24 20 20 25 16 30C12 25 8 20 8 14V6L16 2Z" 
        fill="url(#gradient)" 
        stroke="#1E40AF" 
        stroke-width="1"/>
  
  <!-- Letter A -->
  <path d="M16 8L12 20H14L14.8 18H17.2L18 20H20L16 8Z
           M15.2 16L16 13.5L16.8 16H15.2Z" 
        fill="white" 
        stroke="white" 
        stroke-width="0.5"/>
  
  <!-- Connection lines -->
  <circle cx="10" cy="12" r="1.5" fill="white" opacity="0.8"/>
  <circle cx="22" cy="12" r="1.5" fill="white" opacity="0.8"/>
  <line x1="11.5" y1="12" x2="14" y2="14" stroke="white" stroke-width="1.5" opacity="0.6"/>
  <line x1="20.5" y1="12" x2="18" y2="14" stroke="white" stroke-width="1.5" opacity="0.6"/>
</svg>
